<svg width="1440" height="237" viewBox="0 0 1440 237" fill="none" xmlns="http://www.w3.org/2000/svg">
<g clip-path="url(#clip0)">
<path d="M279.401 169.397H6.04709C2.70079 169.397 -0.0107422 170.621 -0.0107422 172.131V200.396C-0.0107422 201.906 2.70079 203.13 6.04709 203.13H279.401C282.748 203.13 285.463 201.906 285.463 200.396V172.131C285.463 170.621 282.748 169.397 279.401 169.397Z" fill="url(#paint0_radial)" fill-opacity="0.79"/>
<path d="M165.781 85.8079C167.704 88.2559 170.184 90.6078 173.486 91.4531C174.525 91.7197 175.688 91.8717 176.422 92.5517C176.892 93.0517 177.197 93.6239 177.313 94.2237C178.513 98.5062 177.71 103.239 180.065 107.157C181.973 110.327 185.624 112.391 188.526 114.948C191.429 117.506 193.704 121.329 191.946 124.561C191.435 125.459 190.643 126.259 189.634 126.896C188.624 127.534 187.425 127.993 186.13 128.236C183.701 128.716 181.166 128.516 178.7 128.199C175.449 127.78 172.14 127.132 169.432 125.532C164.746 122.764 162.765 117.799 160.314 113.38C159.162 111.311 157.632 109.143 155.1 108.405C152.201 107.557 148.94 108.973 147.057 111.05C145.175 113.127 144.342 115.738 143.428 118.25C142.401 121.087 141.102 124.031 138.398 125.887C137.227 126.717 135.749 127.283 134.145 127.516C132.54 127.748 130.877 127.638 129.357 127.199C126.348 126.289 123.971 123.983 123.277 121.308C122.213 117.188 124.767 112.242 121.63 108.983C120.412 107.722 118.551 107.034 117.245 105.839C115.612 104.343 115.018 102.213 114.89 100.167C114.614 95.7996 116.673 90.9331 121.314 89.1252C122.554 88.6425 123.938 88.3892 125.027 87.6852C128.697 85.3146 126.965 79.4935 130.762 77.2855C131.863 76.6429 133.243 76.4642 134.571 76.3282C138.292 75.9549 141.986 75.9122 145.725 75.9202C148.143 75.9202 150.635 75.3336 153.02 75.4616C159.441 75.8109 162.666 81.8427 165.781 85.8079Z" fill="#965D7B"/>
<path d="M96.9032 174.088L98.3085 186.186L196.602 185.759L194.727 172.552L161.495 169.741L103.222 172.298L96.9032 174.088Z" fill="#575988"/>
<path opacity="0.05" d="M96.9032 174.088L98.3085 186.186L196.602 185.759L194.727 172.552L161.495 169.741L103.222 172.298L96.9032 174.088Z" fill="black"/>
<path d="M161.58 182.541L128.858 184.767C128.858 184.767 151.277 188.917 164.365 186.901L161.58 182.541Z" fill="#F7C4A7"/>
<path opacity="0.1" d="M161.58 182.541L128.858 184.767C128.858 184.767 151.277 188.917 164.365 186.901L161.58 182.541Z" fill="black"/>
<path d="M136.655 97.3356C136.655 97.3356 143.062 109.581 133.591 115.044C124.121 120.508 131.922 135.79 131.922 135.79L168.405 134.574C168.405 134.574 172.022 117.372 170.074 113.73C170.074 113.73 161.44 115.551 159.492 111.706C157.544 107.861 156.15 97.3356 156.15 97.3356H136.655Z" fill="#F7C4A7"/>
<path d="M128.3 171.411C128.3 171.411 97.527 170.904 88.4788 169.277C79.4305 167.651 71.6299 175.458 74.833 179.922C78.0362 184.386 86.9414 187.41 86.9414 187.41C86.9414 187.41 132.755 189.029 142.64 184.477C142.64 184.477 146.401 176.685 142.64 175.168H94.8815L130.106 174.661L128.3 171.411Z" fill="#575988"/>
<path d="M177.174 169.083C177.174 169.083 187.481 170.701 201.68 166.653C201.68 166.653 228.278 166.048 219.366 178.386C210.453 190.725 161.162 187.698 161.162 187.698C161.162 187.698 158.226 183.143 161.162 181.93C164.097 180.717 189.568 172.922 197.505 173.328L175.49 176.464L177.174 169.083Z" fill="#575988"/>
<path opacity="0.1" d="M157.412 103.226C156.88 100.343 156.568 97.9942 156.568 97.9942H137.073C137.974 99.8497 138.599 101.77 138.937 103.722C141.671 105.113 144.954 105.817 148.289 105.728C151.624 105.638 154.827 104.76 157.412 103.226V103.226Z" fill="black"/>
<path d="M147.307 105.077C155.765 105.077 162.622 100.093 162.622 93.9463C162.622 87.7992 155.765 82.816 147.307 82.816C138.848 82.816 131.992 87.7992 131.992 93.9463C131.992 100.093 138.848 105.077 147.307 105.077Z" fill="#F7C4A7"/>
<path d="M138.325 113.324C138.325 113.324 119.946 115.855 117.718 119.191C115.491 122.527 115.77 133.966 115.77 133.966C115.77 133.966 116.603 152.686 110.2 155.014L86.2478 167.157C86.2478 167.157 69.2632 156.331 65.084 162.704C60.9048 169.077 85.1361 171.408 85.1361 171.408L112.149 165.541L120.782 161.493C120.782 161.493 124.818 160.078 125.237 156.635L128.858 135.79L143.34 132.753H166.731L169.865 126.252C169.865 126.252 175.644 129.617 174.807 132.753C173.971 135.889 176.202 156.219 176.202 156.219C176.202 156.219 178.01 160.771 181.771 162.085L203.493 167.752C203.493 167.752 226.466 169.371 227.999 162.085C229.533 154.8 205.441 163.123 205.441 163.123L188.163 153.398C188.163 153.398 186.773 149.35 186.215 146.515C185.657 143.681 184.824 131.54 184.824 131.54C184.824 131.54 190.115 118.788 174.796 116.564L155.023 112.111L138.325 113.324Z" fill="#F7C4A7"/>
<path opacity="0.1" d="M126.004 115.906L128.858 129.617C128.858 129.617 125.923 135.993 128.858 142.267C131.793 148.542 125.237 171.923 125.237 171.923C125.237 171.923 159.632 179.922 180.641 170.707C180.641 170.707 165.187 147.027 171.729 139.134C178.271 131.241 171.839 128.153 171.839 128.153L172.844 113.634L168.111 112.62L165.326 126.991C165.326 126.991 146.111 136.705 131.907 128.207L128.843 112.62L126.004 115.906Z" fill="black"/>
<path opacity="0.07" d="M145.868 132.19C144.38 130.463 142.06 129.2 139.36 128.649C136.66 128.097 133.774 128.296 131.265 129.207C135.929 131.753 141.073 132.433 145.868 132.19Z" fill="white"/>
<path opacity="0.07" d="M153.761 130.684C155.246 128.957 157.564 127.694 160.261 127.142C162.959 126.59 165.843 126.789 168.35 127.7C163.697 130.236 158.556 130.913 153.761 130.684Z" fill="white"/>
<path opacity="0.1" d="M126.004 115.906L128.858 128.908C128.858 128.908 125.923 135.284 128.858 141.558C131.793 147.833 125.237 171.208 125.237 171.208C125.237 171.208 159.632 179.208 180.641 169.995C180.641 169.995 165.187 146.315 171.729 138.422C178.271 130.529 171.839 127.441 171.839 127.441L172.844 112.919L168.111 111.908L165.326 126.279C165.326 126.279 146.111 135.993 131.907 127.492L128.843 111.908L126.004 115.906Z" fill="black"/>
<path d="M125.864 115.804L128.858 129.111C128.858 129.111 125.923 135.486 128.858 141.761C131.793 148.035 125.237 171.411 125.237 171.411C125.237 171.411 159.632 179.41 180.641 170.197C180.641 170.197 165.187 146.515 171.729 138.622C178.271 130.729 171.839 127.644 171.839 127.644L172.844 113.122L168.111 112.111L165.326 126.481C165.326 126.481 146.111 136.196 131.907 127.695L128.843 112.111L125.864 115.804Z" fill="#FC6681"/>
<path d="M139.998 176.368L147.237 175.656C147.237 175.656 155.592 167.864 161.58 173.834C161.58 173.834 164.086 177.68 167.15 178.386C169.245 178.847 171.387 179.186 173.556 179.4L161.162 181.93C161.162 181.93 155.731 184.258 150.022 183.65C146.661 183.277 143.227 183.485 139.998 184.258V176.368Z" fill="#F7C4A7"/>
<path opacity="0.1" d="M131.992 143.329C131.992 143.329 145.08 144.745 147.307 142.217Z" fill="black"/>
<path opacity="0.1" d="M156.777 141.71C156.777 141.71 159.283 143.531 169.307 142.217Z" fill="black"/>
<path opacity="0.1" d="M131.291 113.476C131.291 113.476 140.9 114.49 142.709 113.882Z" fill="black"/>
<path opacity="0.1" d="M152.458 113.476C152.458 113.476 162.068 114.49 163.877 113.882Z" fill="black"/>
<path opacity="0.1" d="M141.04 175.61C141.04 175.61 143.689 184.677 141.04 184.997C138.391 185.317 134.637 183.503 134.637 183.301C134.637 183.098 136.307 177.33 136.307 177.33L141.04 175.61Z" fill="black"/>
<path d="M140.765 175.61C140.765 175.61 143.41 184.677 140.765 184.997C138.119 185.317 134.358 183.503 134.358 183.301C134.358 183.098 136.028 177.33 136.028 177.33L140.765 175.61Z" fill="#575988"/>
<path opacity="0.1" d="M127.838 112.148C126.668 114.119 126.253 116.444 127.493 118.391C128.44 119.876 130.293 121.079 130.649 122.695C131.096 124.724 129.027 126.783 129.801 128.759C130.095 129.513 130.781 130.153 131.478 130.753C133.599 132.574 136.417 134.34 139.69 134.198C140.211 130.524 135.837 126.959 137.268 123.415C137.782 122.145 138.985 121.089 139.712 119.879C140.919 117.871 140.746 115.578 140.31 113.41C139.675 110.263 138.068 106.407 133.775 104.935C131.804 104.258 129.005 104.207 128.304 106.047C127.919 107.029 128.818 107.951 128.939 108.911C129.089 110.13 128.487 111.055 127.838 112.148Z" fill="black"/>
<path d="M127.838 111.847C126.668 113.818 126.253 116.14 127.493 118.09C128.44 119.572 130.293 120.777 130.649 122.391C131.096 124.42 129.027 126.479 129.801 128.455C130.095 129.209 130.781 129.852 131.478 130.452C133.599 132.27 136.417 134.036 139.69 133.894C140.211 130.22 135.837 126.655 137.268 123.111C137.782 121.841 138.985 120.785 139.712 119.575C140.919 117.567 140.746 115.274 140.31 113.106C139.675 109.959 138.068 106.103 133.775 104.631C131.804 103.954 129.005 103.906 128.304 105.743C127.919 106.725 128.818 107.647 128.939 108.607C129.089 109.826 128.487 110.751 127.838 111.847Z" fill="#965D7B"/>
<path opacity="0.1" d="M128.928 88.4825C128.928 88.4825 149.255 86.4586 149.813 89.4931C150.371 92.5277 168.335 97.4929 168.335 97.4929L163.877 89.4931L155.661 79.5761C155.661 79.5761 140.618 78.7762 139.928 79.5761C139.238 80.3761 131.291 83.016 131.291 83.016L128.928 88.4825Z" fill="black"/>
<path d="M128.928 88.2798C128.928 88.2798 149.255 86.2559 149.813 89.2905C150.371 92.325 168.335 97.2902 168.335 97.2902L163.877 89.2905L155.661 79.3735C155.661 79.3735 140.618 78.5735 139.928 79.3735C139.238 80.1734 131.291 82.8133 131.291 82.8133L128.928 88.2798Z" fill="#965D7B"/>
<path opacity="0.1" d="M164.313 109.903C165.302 110.764 166.001 111.78 166.353 112.871C166.691 113.916 166.72 115.004 167.025 116.05C167.707 118.276 169.736 120.148 171.85 121.833C172.536 122.444 173.374 122.956 174.319 123.343C175.288 123.689 176.521 123.761 177.416 123.343C176.565 122.833 176.103 122.057 175.798 121.289C175.369 120.215 175.178 119.098 175.233 117.98C175.325 116.114 176.077 114.143 175.009 112.442C174.393 111.458 173.244 110.711 172.074 110.042C171.26 109.563 170.382 109.144 169.454 108.791C167.722 108.165 165.741 107.89 163.829 107.751C161.341 107.567 163.517 109.221 164.313 109.903Z" fill="black"/>
<path d="M164.313 109.602C165.303 110.461 166.002 111.476 166.353 112.567C166.691 113.612 166.72 114.7 167.025 115.746C167.707 117.972 169.736 119.844 171.85 121.529C172.536 122.14 173.374 122.652 174.319 123.039C175.288 123.385 176.521 123.457 177.416 123.039C176.565 122.529 176.103 121.756 175.798 120.985C175.369 119.911 175.178 118.794 175.233 117.676C175.325 115.81 176.077 113.839 175.009 112.138C174.393 111.156 173.244 110.41 172.074 109.738C171.261 109.257 170.383 108.837 169.454 108.485C167.722 107.858 165.741 107.583 163.829 107.445C161.341 107.263 163.517 108.917 164.313 109.602Z" fill="#965D7B"/>
</g>
<path d="M405.238 104.252L427.551 159.94L449.863 104.252H461.535V172.502H452.535V145.924L453.379 117.237L430.973 172.502H424.082L401.723 117.377L402.613 145.924V172.502H393.613V104.252H405.238ZM516.004 140.955H486.426V165.143H520.785V172.502H477.426V104.252H520.317V111.659H486.426V133.596H516.004V140.955ZM531.988 172.502V104.252H551.254C557.192 104.252 562.442 105.565 567.004 108.19C571.567 110.815 575.082 114.549 577.551 119.393C580.051 124.237 581.317 129.799 581.348 136.08V140.44C581.348 146.877 580.098 152.518 577.598 157.362C575.129 162.205 571.582 165.924 566.957 168.518C562.363 171.112 557.004 172.44 550.879 172.502H531.988ZM540.988 111.659V165.143H550.457C557.395 165.143 562.785 162.987 566.629 158.674C570.504 154.362 572.442 148.221 572.442 140.252V136.268C572.442 128.518 570.613 122.502 566.957 118.221C563.332 113.909 558.176 111.721 551.488 111.659H540.988ZM604.645 172.502H595.645V104.252H604.645V172.502Z" fill="#EF617A"/>
<path d="M668.301 111.659H646.363V172.502H637.41V111.659H615.52V104.252H668.301V111.659ZM712.363 154.69H683.77L677.348 172.502H668.067L694.129 104.252H702.004L728.113 172.502H718.879L712.363 154.69ZM686.488 147.284H709.692L698.067 115.362L686.488 147.284ZM778.363 111.659H756.426V172.502H747.473V111.659H725.582V104.252H778.363V111.659ZM798.145 172.502H789.145V104.252H798.145V172.502ZM867.145 140.58C867.145 147.268 866.02 153.112 863.77 158.112C861.52 163.08 858.332 166.877 854.207 169.502C850.082 172.127 845.27 173.44 839.77 173.44C834.395 173.44 829.629 172.127 825.473 169.502C821.317 166.846 818.082 163.08 815.77 158.205C813.488 153.299 812.317 147.627 812.254 141.19V136.268C812.254 129.705 813.395 123.909 815.676 118.877C817.957 113.846 821.176 110.002 825.332 107.346C829.52 104.659 834.301 103.315 839.676 103.315C845.145 103.315 849.957 104.643 854.113 107.299C858.301 109.924 861.52 113.752 863.77 118.784C866.02 123.784 867.145 129.612 867.145 136.268V140.58ZM858.192 136.174C858.192 128.08 856.567 121.877 853.317 117.565C850.067 113.221 845.52 111.049 839.676 111.049C833.988 111.049 829.504 113.221 826.223 117.565C822.973 121.877 821.301 127.877 821.207 135.565V140.58C821.207 148.424 822.848 154.596 826.129 159.096C829.442 163.565 833.988 165.799 839.77 165.799C845.582 165.799 850.082 163.69 853.27 159.471C856.457 155.221 858.098 149.143 858.192 141.237V136.174ZM933.098 172.502H924.051L889.692 119.909V172.502H880.645V104.252H889.692L924.145 157.08V104.252H933.098V172.502Z" fill="black"/>
<defs>
<radialGradient id="paint0_radial" cx="0" cy="0" r="1" gradientUnits="userSpaceOnUse" gradientTransform="translate(142.726 186.263) rotate(90) scale(16.8661 142.737)">
<stop stop-color="#F463FF"/>
<stop offset="1" stop-color="#FF9B63" stop-opacity="0"/>
</radialGradient>
<clipPath id="clip0">
<rect width="285.463" height="203.143" fill="white"/>
</clipPath>
</defs>
</svg>
